<svg xmlns="http://www.w3.org/2000/svg" width="139.516" height="32" viewBox="0 0 139.516 32">
    <defs>
        <style>
            .cls-1{fill:#21866c}
        </style>
    </defs>
    <g id="Group_7" transform="translate(-194.212 -79)">
        <g id="pattern_1_" transform="translate(194.209 61.725)">
            <g id="Group_2" transform="translate(.003 17.275)">
                <path id="Path_2" d="M33.68 37.634l-.013-.031a7.241 7.241 0 0 0-3.659-3.703 7.941 7.941 0 0 0-1.574-.5l-.015-.005-.046-.015-.024-.008h-.017l-.061-.014-.04-.007H28a7.582 7.582 0 0 0-1.583 0 6.222 6.222 0 0 0-3.964 2.036l-.022.025a6.328 6.328 0 0 0-1.223 2.36 1.393 1.393 0 0 0-.073.439 1.223 1.223 0 0 0-.061.551v.039a1.889 1.889 0 0 0-.005.523 3.73 3.73 0 0 0 .168 1.054c.022.084.044.162.06.232a1.043 1.043 0 0 0 .091.244c0 .017.008.035.012.052a1.37 1.37 0 0 0 .184.406 1.006 1.006 0 0 0 .184.356l.053.066a1.5 1.5 0 0 0 .16.265 5.935 5.935 0 0 0 .772.819l.1.091a1 1 0 0 0 .093.077 5.4 5.4 0 0 0 .924.52l.14.067a1.01 1.01 0 0 0 .122.049 4.707 4.707 0 0 0 .812.174c.094.014.183.027.257.041a1 1 0 0 0 .174.019h.081a3.427 3.427 0 0 0 3.344-2.344A1.005 1.005 0 1 0 26.856 41a1.439 1.439 0 0 1-1.37.829c-.086-.015-.171-.027-.253-.039a3.618 3.618 0 0 1-.423-.078l-.085-.04a4.178 4.178 0 0 1-.554-.295l-.055-.051a4.568 4.568 0 0 1-.5-.514 1.507 1.507 0 0 0-.171-.283 1.392 1.392 0 0 0-.127-.255 1.971 1.971 0 0 0-.089-.246l-.05-.191a2.012 2.012 0 0 1-.1-.519 1 1 0 0 0-.013-.27v-.021a2.205 2.205 0 0 0 .021-.346c.009-.037.017-.074.024-.113a1.442 1.442 0 0 0 .034-.271 4.31 4.31 0 0 1 .821-1.6 4.193 4.193 0 0 1 2.624-1.358h.025a5.616 5.616 0 0 1 1.194 0l.1.009.1.023a5.857 5.857 0 0 1 1.2.381h.008a5.2 5.2 0 0 1 2.611 2.681 6.513 6.513 0 0 1 .472 2.777v.048l-.008.035a2.29 2.29 0 0 0-.051.311c-.011.087-.019.176-.025.27a3.8 3.8 0 0 0-.119.469 1.645 1.645 0 0 1-.07.275 1 1 0 0 0-.085.217 5.664 5.664 0 0 1-.711 1.414l-.043.07a4.931 4.931 0 0 0-.321.443c-.015.017-.047.048-.071.071a2.853 2.853 0 0 0-.24.257c-.042.049-.084.1-.125.151l-.117.1a3.206 3.206 0 0 0-.278.254c-.042.042-.089.089-.112.107l-.013.01a8.744 8.744 0 0 1-1.749 1.032 8.974 8.974 0 0 1-2.047.5 10.227 10.227 0 0 1-2.182-.12 10.359 10.359 0 0 1-2.122-.783 9.68 9.68 0 0 1-1.863-1.407A9.942 9.942 0 0 1 18.534 43l-.01-.018a2.2 2.2 0 0 1-.094-.21c-.045-.108-.1-.23-.164-.362l-.108-.216-.069-.229a3.782 3.782 0 0 0-.13-.367c-.027-.069-.058-.146-.069-.189-.042-.221-.093-.443-.153-.661a8.214 8.214 0 0 1-.148-2.294 1 1 0 0 0 .007-.17 2.726 2.726 0 0 1 .071-.573c.033-.176.071-.375.091-.589v-.031c0-.01.023-.073.036-.109a3.051 3.051 0 0 0 .1-.321l.016-.056h.011a.986.986 0 0 0 .119-.032c.019-.006.078-.018.121-.026a2.263 2.263 0 0 0 .616-.19c.108-.048.235-.093.368-.139a4.617 4.617 0 0 0 .866-.377 10.23 10.23 0 0 0 2.377-1.576 1 1 0 0 0 .086-.079c.134-.138.275-.27.419-.394l.022-.019a3.186 3.186 0 0 0 .36-.4c.047-.059.091-.115.123-.148l.013-.013.228-.243a1.01 1.01 0 0 0 .106-.135l.186-.282.013-.02c.031-.049.079-.111.129-.177a3.822 3.822 0 0 0 .266-.38 11.929 11.929 0 0 0 1.177-2.645l.014-.047a11.6 11.6 0 0 0 .363-2.853v-.052a12.459 12.459 0 0 0-.465-2.763.994.994 0 0 0-.039-.118 12.16 12.16 0 0 0-1.241-2.429l-.033-.045a10.863 10.863 0 0 0-1.835-1.906l-.045-.033a10.734 10.734 0 0 0-2.2-1.234 3.109 3.109 0 0 0-.39-.126c-.052-.014-.116-.031-.142-.042l-.026-.01-.256-.1a1 1 0 0 0-.221-.056c-.071-.009-.142-.021-.211-.034l-.049-.008c-.018 0-.071-.018-.11-.028a2.423 2.423 0 0 0-.474-.094h-.039a2.97 2.97 0 0 1-.4-.043 1.014 1.014 0 0 0-.148-.015h-.151a7.518 7.518 0 0 0-2.065.135 3.128 3.128 0 0 0-.71.17c-.08.027-.163.054-.218.066a1.534 1.534 0 0 0-.53.184c-.046.022-.088.041-.127.057l-.056.025-.05.016a1.906 1.906 0 0 0-.434.186 8.519 8.519 0 0 0-2.825 2.359l-.02.027a7.239 7.239 0 0 0-1.381 5.023 7.935 7.935 0 0 0 .353 1.612v.017c0 .006 0 .025.008.038s0 .016 0 .024 0 .014.006.021.011.039.017.058l.014.04.01.029.013.027.015.032q.015.031.032.06l.013.023.017.029v.008a7.588 7.588 0 0 0 .791 1.372 6.222 6.222 0 0 0 3.745 2.416l.032.006a6.038 6.038 0 0 0 1.033.088 6.464 6.464 0 0 0 1.623-.209 1.4 1.4 0 0 0 .417-.156 1.228 1.228 0 0 0 .508-.223l.036-.015a1.888 1.888 0 0 0 .455-.256 3.742 3.742 0 0 0 .832-.676c.06-.061.117-.118.169-.166a1 1 0 0 0 .162-.2l.04-.037a1.369 1.369 0 0 0 .259-.362 1 1 0 0 0 .217-.337l.031-.08a1.494 1.494 0 0 0 .149-.272 5.926 5.926 0 0 0 .323-1.08l.029-.129a1.007 1.007 0 0 0 .02-.118 5.391 5.391 0 0 0-.012-1.058l-.012-.156a1.019 1.019 0 0 0-.018-.131 4.7 4.7 0 0 0-.256-.79c-.035-.088-.068-.172-.092-.243a1.011 1.011 0 0 0-.071-.16 3.436 3.436 0 0 0-3.724-1.807 1.005 1.005 0 0 0 .523 1.942 1.439 1.439 0 0 1 1.4.772c.03.082.062.162.092.239a3.626 3.626 0 0 1 .144.405l.008.1a4.156 4.156 0 0 1 .022.626l-.016.071a4.545 4.545 0 0 1-.194.694 1.511 1.511 0 0 0-.158.288 1.4 1.4 0 0 0-.157.237 1.987 1.987 0 0 0-.167.2l-.138.137a2.018 2.018 0 0 1-.4.347 1 1 0 0 0-.227.146l-.02.008a2.2 2.2 0 0 0-.311.155l-.112.036a1.446 1.446 0 0 0-.25.106 4.305 4.305 0 0 1-1.8.092 4.191 4.191 0 0 1-2.488-1.593l-.014-.02a5.624 5.624 0 0 1-.6-1.035l-.043-.093-.032-.1a5.849 5.849 0 0 1-.269-1.227v-.024a5.2 5.2 0 0 1 1.016-3.6 6.508 6.508 0 0 1 2.176-1.8l.043-.023.034-.01a2.279 2.279 0 0 0 .3-.111c.078-.033.159-.07.245-.112h.006a3.793 3.793 0 0 0 .465-.132 1.632 1.632 0 0 1 .274-.077 1.008 1.008 0 0 0 .23-.035 5.663 5.663 0 0 1 1.579-.091h.084a4.963 4.963 0 0 0 .543.057c.022 0 .065.017.1.026a2.839 2.839 0 0 0 .343.079c.064.012.128.023.193.033l.143.053a3.2 3.2 0 0 0 .359.114c.057.015.122.033.149.044l.017.007a8.746 8.746 0 0 1 1.768 1 8.952 8.952 0 0 1 1.454 1.524 10.24 10.24 0 0 1 .987 1.95 10.358 10.358 0 0 1 .383 2.229 9.676 9.676 0 0 1-.287 2.317 9.937 9.937 0 0 1-.971 2.191l-.01.017a2.238 2.238 0 0 1-.136.188c-.071.093-.152.2-.231.323l-.133.2-.164.174a3.793 3.793 0 0 0-.253.3c-.046.058-.1.123-.129.154-.17.146-.337.3-.5.464a8.221 8.221 0 0 1-1.912 1.275 1.007 1.007 0 0 0-.152.079 2.722 2.722 0 0 1-.531.225c-.169.059-.36.126-.555.215l-.028.013c-.024.007-.075.016-.113.023a3.06 3.06 0 0 0-.326.076l-.057.014-.007-.007a1.02 1.02 0 0 0-.088-.087c-.015-.014-.054-.059-.083-.092a2.264 2.264 0 0 0-.473-.439c-.1-.07-.2-.157-.305-.25a4.615 4.615 0 0 0-.76-.561 10.213 10.213 0 0 0-2.553-1.271 1 1 0 0 0-.112-.035c-.184-.046-.369-.1-.551-.166l-.026-.009a3.183 3.183 0 0 0-.527-.112c-.075-.011-.145-.022-.19-.033h-.019l-.324-.076a1.016 1.016 0 0 0-.168-.025l-.337-.021h-.024c-.058 0-.135-.012-.217-.023a3.786 3.786 0 0 0-.463-.041 11.924 11.924 0 0 0-2.879.3l-.048.011a11.606 11.606 0 0 0-2.652 1.112l-.044.026a12.45 12.45 0 0 0-2.161 1.785.992.992 0 0 0-.083.093 12.151 12.151 0 0 0-1.465 2.281l-.022.051a10.86 10.86 0 0 0-.733 2.542c0 .018 0 .037-.007.056a10.735 10.735 0 0 0 .03 2.52 3.077 3.077 0 0 0 .087.4c.014.052.031.116.035.143v.026l.045.27a1.008 1.008 0 0 0 .065.223c.026.062.051.128.075.2l.018.048c.006.016.02.07.03.109a2.416 2.416 0 0 0 .156.459l.017.034a2.965 2.965 0 0 1 .161.364 1 1 0 0 0 .061.137l.072.134a7.522 7.522 0 0 0 1.149 1.72 3.124 3.124 0 0 0 .5.53c.063.056.129.114.167.156a1.537 1.537 0 0 0 .425.367c.04.027.078.055.115.083l.046.033.039.036a1.905 1.905 0 0 0 .378.283 8.512 8.512 0 0 0 3.456 1.267h.033c.265.025.521.036.767.036a7.121 7.121 0 0 0 4.28-1.35 7.923 7.923 0 0 0 1.22-1.112q.03-.024.058-.051l.01-.011.038-.04.037-.042.018-.021.019-.027.019-.028c.013-.02.026-.039.037-.059l.012-.021c.006-.011.013-.021.018-.032l.005-.007a7.574 7.574 0 0 0 .793-1.371 6.222 6.222 0 0 0 .219-4.451l-.011-.031a6.325 6.325 0 0 0-1.432-2.238 1.392 1.392 0 0 0-.344-.284 1.225 1.225 0 0 0-.446-.328l-.031-.023a1.889 1.889 0 0 0-.451-.267 3.743 3.743 0 0 0-1-.382c-.083-.022-.161-.043-.229-.064a1.046 1.046 0 0 0-.256-.043l-.05-.015a1.37 1.37 0 0 0-.444-.044 1 1 0 0 0-.4-.019l-.085.013a1.491 1.491 0 0 0-.31.006 5.909 5.909 0 0 0-1.091.258l-.132.041a1.01 1.01 0 0 0-.114.042 5.408 5.408 0 0 0-.912.541l-.128.088a1.007 1.007 0 0 0-.1.081 4.71 4.71 0 0 0-.557.617c-.059.074-.115.145-.164.2a1.006 1.006 0 0 0-.1.141 3.436 3.436 0 0 0 .3 4.128A1.005 1.005 0 1 0 7.7 41.622a1.44 1.44 0 0 1-.033-1.6c.056-.067.109-.134.16-.2a3.637 3.637 0 0 1 .28-.328l.077-.053a4.192 4.192 0 0 1 .532-.333l.075-.023a4.539 4.539 0 0 1 .693-.177 1.5 1.5 0 0 0 .329-.007 1.406 1.406 0 0 0 .282.017 1.98 1.98 0 0 0 .258.045l.188.051a2.017 2.017 0 0 1 .5.175 1 1 0 0 0 .24.124l.017.013a2.2 2.2 0 0 0 .289.191c.027.026.056.052.086.078a1.439 1.439 0 0 0 .217.164 4.306 4.306 0 0 1 .98 1.513 4.191 4.191 0 0 1-.136 2.951l-.01.023a5.608 5.608 0 0 1-.6 1.034l-.059.083-.073.079a5.845 5.845 0 0 1-.928.846l-.007.005a5.2 5.2 0 0 1-3.627.921 6.5 6.5 0 0 1-2.643-.986l-.041-.028-.026-.024a2.272 2.272 0 0 0-.245-.2c-.071-.054-.145-.106-.222-.157a3.8 3.8 0 0 0-.347-.337 1.636 1.636 0 0 1-.2-.2 1.007 1.007 0 0 0-.145-.182 5.666 5.666 0 0 1-.868-1.321l-.04-.074a4.947 4.947 0 0 0-.223-.5c-.007-.021-.018-.064-.026-.1a2.845 2.845 0 0 0-.1-.337c-.022-.062-.044-.123-.068-.183l-.025-.15a3.2 3.2 0 0 0-.081-.366c-.015-.054-.033-.122-.036-.15V41.9a8.734 8.734 0 0 1-.02-2.03 8.953 8.953 0 0 1 .593-2.022 10.23 10.23 0 0 1 1.2-1.829 10.347 10.347 0 0 1 1.739-1.446 9.672 9.672 0 0 1 2.15-.91 9.945 9.945 0 0 1 2.383-.255h.021a2.207 2.207 0 0 1 .229.024c.116.015.247.033.395.039l.241.015.233.055a3.809 3.809 0 0 0 .382.071c.074.011.156.023.2.035.214.075.432.141.65.2a8.2 8.2 0 0 1 2.06 1.018 1 1 0 0 0 .144.092 2.716 2.716 0 0 1 .46.348c.135.116.289.248.464.373l.025.017c.018.018.052.057.077.087a3.082 3.082 0 0 0 .228.244l.041.043v.009a1 1 0 0 0-.032.121c0 .02-.024.076-.038.118a2.26 2.26 0 0 0-.143.628c-.012.118-.037.25-.063.389a4.627 4.627 0 0 0-.106.938 10.219 10.219 0 0 0 .176 2.847 1.023 1.023 0 0 0 .025.113c.052.185.1.374.132.561l.005.027a3.181 3.181 0 0 0 .166.512c.028.07.054.136.066.18l.006.02.1.319a1 1 0 0 0 .063.158l.151.3.011.022c.027.051.057.123.088.2a3.775 3.775 0 0 0 .2.422 11.933 11.933 0 0 0 1.7 2.341l.034.036a11.6 11.6 0 0 0 2.289 1.741l.045.026a12.459 12.459 0 0 0 2.626.979 1.01 1.01 0 0 0 .122.025 14.279 14.279 0 0 0 2.017.169c.234 0 .47-.009.707-.029l.055-.006a10.88 10.88 0 0 0 2.568-.636l.051-.022a10.735 10.735 0 0 0 2.142-1.277 3.107 3.107 0 0 0 .3-.275c.038-.038.085-.085.107-.1l.022-.017.211-.174a1 1 0 0 0 .159-.166c.043-.056.088-.111.134-.164l.032-.039c.012-.015.051-.053.08-.081a2.426 2.426 0 0 0 .319-.364l.021-.032a2.976 2.976 0 0 1 .235-.322 1 1 0 0 0 .087-.121l.079-.128a7.514 7.514 0 0 0 .916-1.857 3.129 3.129 0 0 0 .208-.7c.017-.083.034-.168.051-.222a1.533 1.533 0 0 0 .106-.552c0-.05.008-.1.014-.139q0-.029.006-.058c0-.018.007-.035.011-.052a1.909 1.909 0 0 0 .056-.469 8.524 8.524 0 0 0-.626-3.634z" class="cls-1" transform="translate(-.003 -17.275)"/>
            </g>
        </g>
        <path id="Path_9" d="M13.184.384A11.48 11.48 0 0 1 4.72-2.992a11.364 11.364 0 0 1-3.376-8.368 11.364 11.364 0 0 1 3.376-8.368 11.48 11.48 0 0 1 8.464-3.372 11.368 11.368 0 0 1 7.056 2.288 10.144 10.144 0 0 1 3.888 5.712H20.1a6.4 6.4 0 0 0-2.624-3.168 7.746 7.746 0 0 0-4.288-1.216 7.732 7.732 0 0 0-5.792 2.336A7.981 7.981 0 0 0 5.12-11.36a7.981 7.981 0 0 0 2.272 5.792 7.732 7.732 0 0 0 5.792 2.336 7.746 7.746 0 0 0 4.288-1.216A6.4 6.4 0 0 0 20.1-7.616h4.032A10.144 10.144 0 0 1 20.24-1.9 11.368 11.368 0 0 1 13.184.384zM27.488 0v-24h3.52V0zm21.44-2.08a8.082 8.082 0 0 1-5.952 2.4 8.108 8.108 0 0 1-5.968-2.42A8.031 8.031 0 0 1 34.592-8a8.031 8.031 0 0 1 2.416-5.9 8.108 8.108 0 0 1 5.968-2.416 8.108 8.108 0 0 1 5.968 2.416A8.031 8.031 0 0 1 51.36-8a8.057 8.057 0 0 1-2.432 5.92zm-5.952-.864a4.5 4.5 0 0 0 3.44-1.456 5.074 5.074 0 0 0 1.36-3.6 5.074 5.074 0 0 0-1.36-3.6 4.5 4.5 0 0 0-3.44-1.456A4.542 4.542 0 0 0 39.5-11.6 5.074 5.074 0 0 0 38.144-8 5.074 5.074 0 0 0 39.5-4.4a4.542 4.542 0 0 0 3.476 1.456zM54.912 0v-16h3.52v2.848a4.214 4.214 0 0 1 1.648-2.176 4.437 4.437 0 0 1 2.576-.832 6.154 6.154 0 0 1 1.376.128v3.616a4.992 4.992 0 0 0-1.76-.288 3.468 3.468 0 0 0-2.72 1.3 5.329 5.329 0 0 0-1.12 3.6V0zm11.072 0v-2.784L74.368-12.8h-8.256V-16h12.8v2.816L70.528-3.2h8.64V0zm23.1.32A7.143 7.143 0 0 1 83.6-2.112 8.414 8.414 0 0 1 81.376-8a8.414 8.414 0 0 1 2.224-5.888 7.143 7.143 0 0 1 5.488-2.432 6.389 6.389 0 0 1 3.008.72 5.907 5.907 0 0 1 2.112 1.744V-16h3.52V0h-3.52v-2.144A5.907 5.907 0 0 1 92.1-.4a6.389 6.389 0 0 1-3.012.72zM86.3-4.352a4.432 4.432 0 0 0 3.428 1.472 4.432 4.432 0 0 0 3.424-1.472A5.208 5.208 0 0 0 94.5-8a5.208 5.208 0 0 0-1.344-3.648 4.432 4.432 0 0 0-3.424-1.472 4.432 4.432 0 0 0-3.432 1.472A5.208 5.208 0 0 0 84.96-8a5.208 5.208 0 0 0 1.34 3.648z" class="cls-1" transform="translate(236 106)"/>
    </g>
</svg>
